<svg width="568" height="569" viewBox="0 0 568 569" fill="none" xmlns="http://www.w3.org/2000/svg">
<g filter="url(#filter0_d)">
<path d="M425.867 474.56C447.529 484.012 507.393 511.188 528.661 519.852C531.024 521.034 536.538 520.64 535.75 515.52C531.024 464.32 502.273 170.905 497.153 118.917C496.365 111.434 494.002 110.252 488.488 108.283C471.553 101.981 430.593 87.409 413.657 81.501C407.749 79.138 404.205 79.138 397.903 81.501C371.515 88.984 288.02 114.584 288.02 114.584C288.02 114.584 200.98 88.196 173.805 80.713C167.897 78.744 164.747 78.35 158.051 81.107C140.722 86.621 100.549 101.587 83.2204 107.889C76.1314 110.646 75.3434 113.797 74.5554 118.523C69.0434 169.329 37.5354 463.926 32.0214 515.52C31.6274 521.428 36.7474 521.034 41.4734 519.458C65.1044 510.006 124.968 484.012 146.236 475.347C150.568 473.378 154.901 472.196 161.99 475.347C186.015 485.193 256.513 517.095 279.75 526.547C284.87 528.91 289.596 529.304 295.504 526.547C318.741 516.701 386.876 485.193 409.719 474.953C414.052 472.591 420.747 472.197 425.867 474.56Z" fill="#FFF8EB"/>
<path d="M168.686 79.532C165.535 79.138 162.384 79.532 158.052 81.107C140.723 86.621 100.55 101.587 83.2214 107.889C76.1324 110.646 75.3444 113.797 74.5564 118.523C69.0434 169.329 37.5354 463.926 32.0214 515.52C31.6274 521.428 36.7474 521.034 41.4734 519.458C65.1044 510.006 124.968 484.012 146.236 475.347C149.387 474.165 152.144 472.984 156.476 473.772C156.477 473.772 168.686 79.532 168.686 79.532ZM403.812 79.532C402.237 79.926 400.661 80.32 398.692 81.107C372.304 88.984 291.96 113.402 288.415 114.584V528.122C290.778 528.122 293.535 527.334 296.292 526.153C319.529 516.307 387.664 484.799 410.507 474.559C412.082 473.771 414.052 473.377 416.021 472.984C416.021 472.985 403.812 79.532 403.812 79.532Z" fill="#FFEECF"/>
<path d="M141.36 232.105L389.952 480.309C383.875 483.069 377.155 486.189 370.117 489.456C365.413 491.64 360.567 493.89 355.675 496.142L290.679 427.438L288.611 425.252L286.431 427.327L215.349 495.011C203.096 489.408 190.954 484.121 181.027 479.852L257.847 403.032L259.968 400.911L257.847 398.79L68.2278 209.171C69.7086 194.134 71.1842 180.232 72.4878 167.951C72.6411 166.506 72.792 165.084 72.9403 163.685L112.213 202.958L114.335 205.08L116.456 202.958L221.528 97.8857C227.062 99.54 232.653 101.186 238.111 102.792C245.832 105.065 253.286 107.259 259.93 109.288L141.358 227.861L139.235 229.984L141.36 232.105Z" fill="#03A9F4" stroke="#007AC1" stroke-width="6"/>
<path d="M164.747 200V158.5L114.5 208.714L70 165C68.425 179.966 67.469 182.914 65.5 203L162 299L163.5 258L135 230L164.747 200ZM288.021 421.5L360 497C374.572 490.305 378.079 489.12 389.5 484L288.021 383V421.5Z" fill="#009AE0"/>
<path d="M347.099 24C410.114 24 461.314 75.2 461.314 138.609C461.314 139.791 460.92 169.329 451.074 190.203C427.837 244.16 371.911 301.268 353.4 319.778C348.674 324.11 346.705 324.898 340.797 319.384C321.892 300.873 266.754 244.553 243.517 190.99C235.246 175.236 232.883 141.365 232.883 138.608C232.884 75.2 284.084 24 347.099 24Z" fill="#47BD00"/>
<path d="M347.099 79.138C314.41 79.138 288.021 105.526 288.021 138.215C288.021 170.904 314.41 197.292 347.099 197.292C379.788 197.292 406.176 170.904 406.176 138.215C406.176 105.526 379.788 79.138 347.099 79.138ZM347.099 173.662C327.407 173.662 311.652 157.908 311.652 138.216C311.652 118.524 327.407 102.77 347.099 102.77C366.791 102.77 382.544 118.524 382.544 138.216C382.544 157.908 366.791 173.662 347.099 173.662Z" fill="white"/>
</g>
<defs>
<filter id="filter0_d" x="0" y="0" width="567.827" height="568.47" filterUnits="userSpaceOnUse" color-interpolation-filters="sRGB">
<feFlood flood-opacity="0" result="BackgroundImageFix"/>
<feColorMatrix in="SourceAlpha" type="matrix" values="0 0 0 0 0 0 0 0 0 0 0 0 0 0 0 0 0 0 127 0"/>
<feOffset dy="8"/>
<feGaussianBlur stdDeviation="16"/>
<feColorMatrix type="matrix" values="0 0 0 0 0 0 0 0 0 0 0 0 0 0 0 0 0 0 0.25 0"/>
<feBlend mode="normal" in2="BackgroundImageFix" result="effect1_dropShadow"/>
<feBlend mode="normal" in="SourceGraphic" in2="effect1_dropShadow" result="shape"/>
</filter>
</defs>
</svg>
